<?xml version="1.0" standalone="no"?>
<!DOCTYPE svg PUBLIC "-//W3C//DTD SVG 20010904//EN"
 "http://www.w3.org/TR/2001/REC-SVG-20010904/DTD/svg10.dtd">
<svg version="1.0" xmlns="http://www.w3.org/2000/svg"
 width="155.000000pt" height="189.000000pt" viewBox="0 0 155.000000 189.000000"
 preserveAspectRatio="xMidYMid meet">

<g transform="translate(0.000000,189.000000) scale(0.100000,-0.100000)"
fill="#000000" stroke="none">
<path d="M120 1660 l0 -100 50 0 50 0 0 -628 0 -627 93 -93 92 -92 373 0 372
0 95 92 95 91 0 629 0 628 50 0 50 0 0 100 0 100 -280 0 -280 0 0 -100 0 -100
130 0 130 0 0 -64 0 -65 48 -3 47 -3 3 -177 2 -178 -50 0 -50 0 0 -321 0 -321
-38 -69 -37 -69 -265 0 -265 1 -35 46 c-19 26 -41 52 -48 60 -10 10 -14 86
-15 340 l-2 328 -57 3 -58 3 0 179 0 180 55 0 c49 0 55 2 60 23 4 13 5 41 3
63 l-3 39 123 3 122 3 0 99 0 100 -280 0 -280 0 0 -100z"/>
<path d="M382 1248 l3 -123 60 0 60 0 3 63 3 63 87 -3 87 -3 0 -330 0 -330
-32 -3 -33 -3 0 -60 0 -59 155 0 155 0 0 60 0 60 -30 0 -30 0 0 335 0 335 90
0 89 0 3 -62 3 -63 55 0 55 0 3 123 3 122 -396 0 -396 0 3 -122z"/>
<path d="M1010 385 c0 -8 2 -15 4 -15 2 0 6 7 10 15 3 8 1 15 -4 15 -6 0 -10
-7 -10 -15z"/>
</g>
</svg>
